{
  "accessors": [
    {
      "bufferView": 2,
      "componentType": 5126,
      "count": 30150,
      "max": [
        0.1863739937543869,
        0.052657999098300934,
        0.7026450037956238
      ],
      "min": [
        -0.19430699944496155,
        -0.2560969889163971,
        -0.2225019931793213
      ],
      "type": "VEC3"
    },
    {
      "bufferView": 2,
      "byteOffset": 361800,
      "componentType": 5126,
      "count": 30150,
      "max": [
        0.999951958656311,
        0.9999885559082031,
        0.9999204874038696
      ],
      "min": [
        -0.9999806880950928,
        -0.9999951124191284,
        -0.99647456407547
      ],
      "type": "VEC3"
    },
    {
      "bufferView": 3,
      "componentType": 5126,
      "count": 30150,
      "max": [
        0.9999669790267944,
        0.9999415874481201,
        0.9999911785125732,
        1.0
      ],
      "min": [
        -0.9999961853027344,
        -0.9998911023139954,
        -0.999982476234436,
        -1.0
      ],
      "type": "VEC4"
    },
    {
      "bufferView": 1,
      "componentType": 5126,
      "count": 30150,
      "max": [
        0.9965230226516724,
        0.9999430179595947
      ],
      "min": [
        7.300000288523734e-05,
        5.900000178371556e-05
      ],
      "type": "VEC2"
    },
    {
      "bufferView": 0,
      "componentType": 5125,
      "count": 160614,
      "type": "SCALAR"
    }
  ],
  "asset": {
    "extras": {
      "author": "Austin Beaulier (https://sketchfab.com/Austin.Beaulier)",
      "license": "SKETCHFAB Standard (https://sketchfab.com/licenses)",
      "source": "https://sketchfab.com/3d-models/rose-scan-for-valentines-day-2023-d61b6e544bca4e8fa4921f4ba80384e4",
      "title": "Rose scan for Valentine's Day 2023"
    },
    "generator": "Sketchfab-15.49.0",
    "version": "2.0"
  },
  "bufferViews": [
    {
      "buffer": 0,
      "byteLength": 642456,
      "name": "floatBufferViews",
      "target": 34963
    },
    {
      "buffer": 0,
      "byteLength": 241200,
      "byteOffset": 642456,
      "byteStride": 8,
      "name": "floatBufferViews",
      "target": 34962
    },
    {
      "buffer": 0,
      "byteLength": 723600,
      "byteOffset": 883656,
      "byteStride": 12,
      "name": "floatBufferViews",
      "target": 34962
    },
    {
      "buffer": 0,
      "byteLength": 482400,
      "byteOffset": 1607256,
      "byteStride": 16,
      "name": "floatBufferViews",
      "target": 34962
    }
  ],
  "buffers": [
    {
      "byteLength": 2089656,
      "uri": "scene.bin"
    }
  ],
  "extensionsUsed": [
    "KHR_materials_specular"
  ],
  "images": [
    {
      "uri": "textures/poly_0_baseColor.jpeg"
    },
    {
      "uri": "textures/poly_0_metallicRoughness.png"
    },
    {
      "uri": "textures/poly_0_normal.png"
    }
  ],
  "materials": [
    {
      "doubleSided": true,
      "extensions": {
        "KHR_materials_specular": {
          "specularColorFactor": [
            1.0,
            1.0,
            1.0
          ],
          "specularFactor": 0.0
        }
      },
      "name": "poly_0",
      "normalTexture": {
        "index": 2
      },
      "pbrMetallicRoughness": {
        "baseColorTexture": {
          "index": 0
        },
        "metallicFactor": 0.30292349240687483,
        "metallicRoughnessTexture": {
          "index": 1
        },
        "roughnessFactor": 0.6141097221111259
      }
    }
  ],
  "meshes": [
    {
      "name": "Object_0",
      "primitives": [
        {
          "attributes": {
            "NORMAL": 1,
            "POSITION": 0,
            "TANGENT": 2,
            "TEXCOORD_0": 3
          },
          "indices": 4,
          "material": 0,
          "mode": 4
        }
      ]
    }
  ],
  "nodes": [
    {
      "children": [
        1
      ],
      "matrix": [
        0.7838545441627502,
        1.3787737617609484e-16,
        -0.6209444999694824,
        0.0,
        -0.6209444999694824,
        1.7405067257730838e-16,
        -0.7838545441627502,
        0.0,
        0.0,
        1.0,
        2.220446049250313e-16,
        0.0,
        0.0,
        0.0,
        0.0,
        1.0
      ],
      "name": "Sketchfab_model"
    },
    {
      "children": [
        2
      ],
      "name": "Rose.obj.cleaner.materialmerger.gles"
    },
    {
      "mesh": 0,
      "name": "Object_2"
    }
  ],
  "samplers": [
    {
      "magFilter": 9729,
      "minFilter": 9987,
      "wrapS": 10497,
      "wrapT": 10497
    }
  ],
  "scene": 0,
  "scenes": [
    {
      "name": "Sketchfab_Scene",
      "nodes": [
        0
      ]
    }
  ],
  "textures": [
    {
      "sampler": 0,
      "source": 0
    },
    {
      "sampler": 0,
      "source": 1
    },
    {
      "sampler": 0,
      "source": 2
    }
  ]
}
